# xmcd
#
# Track frame offsets:
#	150
#	15087
#	31867
#	50486
#	66379
#	76796
#	96069
#	113141
#	130335
#	150747
#	167936
#	182840
#
# Disc length: 2658 seconds
#
# Revision: 2
# Processed by: cddbd v1.5PL3 Copyright (c) Steve Scherf et al.
# Submitted via: audiograbber 1.80
#
DISCID=900a600c
DTITLE=Belinda Gail - She Is A Cowgirl
DYEAR=1900
DGENRE=
TTITLE0=She is a Cowgirl
TTITLE1=Below the Old Kinney Rim
TTITLE2=O' Wyoming
TTITLE3=Montana Cowgirl
TTITLE4=Two Seated Saddle
TTITLE5=Warm Owyhee Wind
TTITLE6=Hooked on Cowboys
TTITLE7=I've Just Got To Be A Cowgirl
TTITLE8=Till The Sagebrush Doesn't Roll
TTITLE9=Daddy's Little Cowgirl
TTITLE10=Cowboy Sweetheart
TTITLE11='Tis So Sweet to Trust in Jesus
EXTD=
EXTT0=
EXTT1=
EXTT2=
EXTT3=
EXTT4=
EXTT5=
EXTT6=
EXTT7=
EXTT8=
EXTT9=
EXTT10=
EXTT11=
PLAYORDER=
